<?xml version="1.0" standalone="no"?>
<!DOCTYPE svg PUBLIC "-//W3C//DTD SVG 20010904//EN"
 "http://www.w3.org/TR/2001/REC-SVG-20010904/DTD/svg10.dtd">
<svg version="1.0" xmlns="http://www.w3.org/2000/svg"
 width="172.000000pt" height="172.000000pt" viewBox="0 0 172.000000 172.000000"
 preserveAspectRatio="xMidYMid meet">
<metadata>
Created by potrace 1.14, written by Peter Selinger 2001-2017
</metadata>
<g transform="translate(0.000000,172.000000) scale(0.100000,-0.100000)"
fill="#000000" stroke="none">
<path d="M1207 1394 c-9 -10 3 -57 18 -69 7 -6 27 -39 44 -74 25 -48 31 -70
25 -90 -10 -33 -6 -98 7 -133 9 -23 6 -32 -23 -72 -37 -50 -49 -54 -93 -28
-30 19 -30 19 -30 113 l0 94 -280 0 -280 0 4 -97 3 -97 -35 -17 c-44 -21 -56
-16 -90 33 -27 38 -27 43 -17 99 6 32 12 75 14 94 4 47 41 117 65 125 11 3 26
17 35 30 13 20 14 30 5 47 l-11 21 -18 -23 c-21 -28 -44 -18 -36 16 8 30 -13
32 -39 4 -12 -13 -16 -29 -12 -52 3 -25 -4 -48 -31 -97 -19 -35 -42 -66 -51
-68 -28 -7 -65 -73 -67 -117 0 -23 -4 -48 -8 -57 -7 -17 16 -49 35 -49 6 0 23
14 38 31 l28 30 55 -57 55 -56 40 21 c51 25 53 21 53 -90 l0 -79 -60 -93 c-33
-52 -60 -101 -60 -109 0 -8 8 -22 18 -31 17 -15 57 -17 373 -17 l354 1 18 24
c18 25 17 26 -25 95 -95 156 -88 138 -82 220 8 106 8 106 49 80 33 -20 37 -21
60 -6 13 8 36 31 51 51 33 43 58 45 79 5 16 -30 38 -37 64 -21 11 7 11 18 2
57 -6 27 -13 65 -16 84 -6 39 -26 66 -68 93 -32 21 -74 84 -96 147 -29 79 -46
102 -64 84z m-88 -293 c15 -10 8 -16 -34 -25 -16 -4 -46 -11 -66 -17 l-36 -9
19 -39 c18 -37 18 -42 3 -70 -13 -25 -22 -31 -50 -31 -37 0 -75 36 -75 71 0
11 -4 19 -10 19 -5 0 -10 -10 -10 -23 0 -12 -7 -33 -16 -45 -12 -18 -25 -22
-69 -22 -51 0 -55 -2 -60 -27 -23 -108 -41 -141 -65 -117 -5 5 -12 80 -16 167
-6 131 -5 161 7 168 18 11 460 11 478 0z"/>
</g>
</svg>
